# xmcd
#
# Track frame offsets:
#	150
#	21112
#	51325
#	73900
#	92975
#	113412
#	131825
#	153600
#	173050
#	194775
#	212975
#	238462
#	260787
#	283937
#
# Disc length: 4087 seconds
#
# Revision: 1
# Processed by: cddbd v1.5.1PL0 Copyright (c) Steve Scherf et al.
# Submitted via: CDex 1.50Beta5
#
DISCID=e80ff50e
DTITLE=Various Artist - NEW MUSIC BEST COLLECTION 10
DYEAR=1900
DGENRE=New Age
TTITLE0=小野正利/You're the Only
TTITLE1=尾崎豊/卒業
TTITLE2=プリンセス・プリンセス/Diamonds
TTITLE3=プリンセス・プリンセス/世界でいちばん熱い夏(平成レコーディング)
TTITLE4=プリンセス・プリンセス/KISS
TTITLE5=チューブ/シーズン・イン・ザ・サン
TTITLE6=楠瀬誠志郎/君と歩きたい
TTITLE7=楠瀬誠志郎/ほっとけないよ
TTITLE8=ハウンド・ドッグ/ff(フォルティシモ)
TTITLE9=奥田民生/休日
TTITLE10=米米CLUB/FUNK FUJIYAMA
TTITLE11=爆風スランプ/大きな玉ねぎの下で〜はるかなる想い
TTITLE12=聖飢魔/白い奇蹟
TTITLE13=浜田省吾/路地裏の少年
EXTD=
EXTT0=
EXTT1=
EXTT2=
EXTT3=
EXTT4=
EXTT5=
EXTT6=
EXTT7=
EXTT8=
EXTT9=
EXTT10=
EXTT11=
EXTT12=
EXTT13=
PLAYORDER=
